<mxfile host="Electron" modified="2024-12-08T09:57:08.949Z" agent="Mozilla/5.0 (Windows NT 10.0; Win64; x64) AppleWebKit/537.36 (KHTML, like Gecko) draw.io/24.4.13 Chrome/124.0.6367.207 Electron/30.0.6 Safari/537.36" etag="48gFQnNI0l5LxS-uO9Fb" version="24.4.13" type="device" pages="3">
  <diagram name="design" id="6_wmwT8tX2G0AVnGWSzB">
    <mxGraphModel dx="1434" dy="1936" grid="1" gridSize="10" guides="1" tooltips="1" connect="1" arrows="1" fold="1" page="1" pageScale="1" pageWidth="850" pageHeight="1100" math="0" shadow="0">
      <root>
        <mxCell id="0" />
        <mxCell id="1" parent="0" />
        <mxCell id="h4C9AXublNJlHp0HwAy1-2" value="Docs&lt;div&gt;List of docs&lt;/div&gt;" style="rounded=0;whiteSpace=wrap;html=1;" parent="1" vertex="1">
          <mxGeometry x="120" y="80" width="120" height="60" as="geometry" />
        </mxCell>
        <mxCell id="h4C9AXublNJlHp0HwAy1-3" value="&lt;div&gt;Pats&lt;/div&gt;&lt;div&gt;List of pats&lt;/div&gt;" style="rounded=0;whiteSpace=wrap;html=1;" parent="1" vertex="1">
          <mxGeometry x="400" y="80" width="120" height="60" as="geometry" />
        </mxCell>
        <mxCell id="h4C9AXublNJlHp0HwAy1-4" value="" style="shape=cylinder3;whiteSpace=wrap;html=1;boundedLbl=1;backgroundOutline=1;size=15;" parent="1" vertex="1">
          <mxGeometry x="240" y="-120" width="60" height="80" as="geometry" />
        </mxCell>
        <mxCell id="h4C9AXublNJlHp0HwAy1-5" value="" style="shape=cylinder3;whiteSpace=wrap;html=1;boundedLbl=1;backgroundOutline=1;size=15;" parent="1" vertex="1">
          <mxGeometry x="560" y="-120" width="60" height="80" as="geometry" />
        </mxCell>
        <mxCell id="h4C9AXublNJlHp0HwAy1-7" value="tbDocInfo&lt;div&gt;&lt;br&gt;&lt;/div&gt;&lt;div&gt;id:&lt;br&gt;&lt;div&gt;Name:&lt;/div&gt;&lt;div&gt;group:&amp;nbsp; &amp;nbsp; &amp;nbsp;(specialization - to group docs)&lt;/div&gt;&lt;/div&gt;&lt;div&gt;preferredPaymentOptions&lt;br&gt;&lt;/div&gt;&lt;div&gt;createdDate&lt;/div&gt;&lt;div&gt;updatedDate&lt;/div&gt;&lt;div&gt;&lt;br&gt;&lt;/div&gt;" style="rounded=0;whiteSpace=wrap;html=1;align=left;" parent="1" vertex="1">
          <mxGeometry x="200" y="160" width="240" height="160" as="geometry" />
        </mxCell>
        <mxCell id="h4C9AXublNJlHp0HwAy1-8" value="&lt;div&gt;tbPatInfo&lt;/div&gt;&lt;div&gt;&lt;br&gt;&lt;/div&gt;&lt;div&gt;id:&lt;/div&gt;&lt;div&gt;&lt;span style=&quot;background-color: initial;&quot;&gt;Name:&lt;/span&gt;&lt;/div&gt;&lt;div&gt;&lt;span style=&quot;background-color: initial;&quot;&gt;address:&lt;/span&gt;&lt;/div&gt;&lt;div&gt;dob:&lt;/div&gt;&lt;div&gt;Concern:&lt;/div&gt;&lt;div&gt;&lt;div&gt;createdDate&lt;/div&gt;&lt;div&gt;updatedDate&lt;/div&gt;&lt;/div&gt;" style="rounded=0;whiteSpace=wrap;html=1;align=left;" parent="1" vertex="1">
          <mxGeometry x="480" y="161" width="120" height="159" as="geometry" />
        </mxCell>
        <mxCell id="h4C9AXublNJlHp0HwAy1-9" value="Available slots" style="rounded=0;whiteSpace=wrap;html=1;" parent="1" vertex="1">
          <mxGeometry x="120" y="360" width="120" height="40" as="geometry" />
        </mxCell>
        <mxCell id="h4C9AXublNJlHp0HwAy1-10" value="08 09 10 11 12 13 14&lt;div&gt;14:00 - 16:00&lt;span style=&quot;background-color: initial;&quot;&gt;&amp;nbsp;&lt;/span&gt;&lt;/div&gt;&lt;div&gt;&lt;br&gt;&lt;/div&gt;&lt;div&gt;15 16 17 18 19 20 21&lt;/div&gt;&lt;div&gt;15:00 - 16:00&lt;br&gt;&lt;div&gt;&lt;br&gt;&lt;/div&gt;&lt;/div&gt;" style="rounded=0;whiteSpace=wrap;html=1;" parent="1" vertex="1">
          <mxGeometry x="90" y="420" width="120" height="120" as="geometry" />
        </mxCell>
        <mxCell id="h4C9AXublNJlHp0HwAy1-11" value="&lt;div&gt;tbAvailableDate&lt;/div&gt;id | docId | date" style="rounded=0;whiteSpace=wrap;html=1;align=left;" parent="1" vertex="1">
          <mxGeometry x="360" y="400" width="120" height="40" as="geometry" />
        </mxCell>
        <mxCell id="h4C9AXublNJlHp0HwAy1-12" value="&lt;div&gt;tbAvailableSlot&lt;/div&gt;&lt;div&gt;&lt;br&gt;&lt;/div&gt;id | docId | date | timeBlockId | patId | availablityStatus&lt;div&gt;&lt;br&gt;&lt;/div&gt;" style="rounded=0;whiteSpace=wrap;html=1;align=left;" parent="1" vertex="1">
          <mxGeometry x="360" y="480" width="320" height="80" as="geometry" />
        </mxCell>
        <mxCell id="h4C9AXublNJlHp0HwAy1-13" value="availablityStatuses&lt;div&gt;&lt;br&gt;&lt;div&gt;free&lt;/div&gt;&lt;div&gt;choosenByPat&amp;nbsp; &amp;nbsp;(&lt;span style=&quot;background-color: initial;&quot;&gt;reserved by pat - not confirmed - will be free after 5 mins&lt;/span&gt;&lt;span style=&quot;background-color: initial;&quot;&gt;)&lt;/span&gt;&lt;/div&gt;&lt;div&gt;bookedByPat&amp;nbsp; (reserved by pat n confirmed)&lt;/div&gt;&lt;div&gt;reservedByDoc (bcz doc needs to travel to visit a pat)&lt;/div&gt;&lt;/div&gt;" style="rounded=0;whiteSpace=wrap;html=1;align=left;" parent="1" vertex="1">
          <mxGeometry x="876" y="480" width="400" height="120" as="geometry" />
        </mxCell>
        <mxCell id="h4C9AXublNJlHp0HwAy1-14" value="&lt;div&gt;tbBooking&lt;/div&gt;id | startTimeBlockId | endTimeBlockId | patId | bookingStatus | paymentStatus&lt;div&gt;1&amp;nbsp; | 16&amp;nbsp; &amp;nbsp; &amp;nbsp; &amp;nbsp; &amp;nbsp; &amp;nbsp; &amp;nbsp; &amp;nbsp; &amp;nbsp; &amp;nbsp; &amp;nbsp; &amp;nbsp;| 17&amp;nbsp; &amp;nbsp; &amp;nbsp; &amp;nbsp; &amp;nbsp; &amp;nbsp; &amp;nbsp; &amp;nbsp; &amp;nbsp; &amp;nbsp; &amp;nbsp; &amp;nbsp;| 23&amp;nbsp; &amp;nbsp; &amp;nbsp; &amp;nbsp; &amp;nbsp; &amp;nbsp; &amp;nbsp; &amp;nbsp; &amp;nbsp; &amp;nbsp; &amp;nbsp; &amp;nbsp; &amp;nbsp; &amp;nbsp; &amp;nbsp; &amp;nbsp; &amp;nbsp;&amp;nbsp;&lt;/div&gt;&lt;div&gt;&lt;br&gt;&lt;/div&gt;&lt;div&gt;booked&amp;nbsp; &amp;nbsp;4&amp;nbsp; to&amp;nbsp; &amp;nbsp;4.30&amp;nbsp;&amp;nbsp;&lt;/div&gt;&lt;div&gt;&lt;div&gt;&lt;br&gt;&lt;/div&gt;&lt;/div&gt;&lt;div&gt;bookedByPat comes here&lt;/div&gt;" style="rounded=0;whiteSpace=wrap;html=1;align=left;" parent="1" vertex="1">
          <mxGeometry x="360" y="680" width="440" height="120" as="geometry" />
        </mxCell>
        <mxCell id="h4C9AXublNJlHp0HwAy1-15" value="bookingStatus&lt;div&gt;&lt;br&gt;&lt;div&gt;pendingConfirmationByDoc&lt;/div&gt;&lt;/div&gt;&lt;div&gt;confirmedByDoc&lt;/div&gt;&lt;div&gt;&lt;br&gt;&lt;/div&gt;&lt;div&gt;Once confirmedByDoc pat should update the payment status by choosing one of the below with 24 hours&lt;/div&gt;&lt;div&gt;else make slot free again?&lt;/div&gt;" style="rounded=0;whiteSpace=wrap;html=1;align=left;" parent="1" vertex="1">
          <mxGeometry x="876" y="640" width="400" height="120" as="geometry" />
        </mxCell>
        <mxCell id="h4C9AXublNJlHp0HwAy1-16" value="paymentStatus&lt;div&gt;&lt;br&gt;&lt;div&gt;paid&amp;nbsp; &amp;nbsp; &amp;nbsp; &amp;nbsp; &amp;nbsp; &amp;nbsp; &amp;nbsp; &amp;nbsp; &amp;nbsp;(paid in advance)&lt;/div&gt;&lt;/div&gt;&lt;div&gt;payAtVisit&lt;/div&gt;" style="rounded=0;whiteSpace=wrap;html=1;align=left;" parent="1" vertex="1">
          <mxGeometry x="876" y="800" width="200" height="80" as="geometry" />
        </mxCell>
        <mxCell id="gIe-xlsMQSExjwmWoOjr-1" value="&lt;div&gt;tbTimeBlock&lt;/div&gt;" style="rounded=0;whiteSpace=wrap;html=1;align=left;" parent="1" vertex="1">
          <mxGeometry x="360" y="600" width="440" height="40" as="geometry" />
        </mxCell>
        <mxCell id="pCRdCyu_GlJLCPqCEjmV-1" value="User management service&lt;div&gt;&lt;br&gt;&lt;/div&gt;&lt;div&gt;UserGroups - Doc, Pat, Admin&lt;/div&gt;&lt;div&gt;&lt;br&gt;&lt;/div&gt;&lt;div&gt;/createAccount&lt;/div&gt;&lt;div&gt;&amp;nbsp; &amp;nbsp; &amp;nbsp;&lt;span style=&quot;white-space: pre;&quot;&gt;&#x9;&lt;/span&gt;(doc / pat create account)&lt;/div&gt;&lt;div&gt;&lt;br&gt;&lt;/div&gt;&lt;div&gt;/approve&lt;br&gt;&lt;/div&gt;&lt;div&gt;&lt;span style=&quot;white-space: pre;&quot;&gt;&#x9;&lt;/span&gt;(admin approves account)&lt;br&gt;&lt;/div&gt;&lt;div&gt;&lt;br&gt;&lt;/div&gt;&lt;div&gt;/login&lt;/div&gt;&lt;div&gt;&lt;br&gt;&lt;/div&gt;&lt;div&gt;/getUser&lt;/div&gt;" style="rounded=0;whiteSpace=wrap;html=1;align=left;" parent="1" vertex="1">
          <mxGeometry x="80" y="1120" width="280" height="200" as="geometry" />
        </mxCell>
        <mxCell id="pCRdCyu_GlJLCPqCEjmV-2" value="booking service&lt;div&gt;&lt;br&gt;&lt;/div&gt;&lt;div&gt;/saveAvailableSlots&lt;/div&gt;&lt;div&gt;&lt;span style=&quot;background-color: initial;&quot;&gt;&lt;span style=&quot;white-space: pre;&quot;&gt;&#x9;&lt;/span&gt;(doc enters his available time - create or update)&lt;/span&gt;&lt;/div&gt;&lt;div&gt;&lt;br&gt;&lt;/div&gt;&lt;div&gt;/viewAvailability&lt;/div&gt;&lt;div&gt;&lt;span style=&quot;white-space: pre;&quot;&gt;&#x9;&lt;/span&gt;(input - startDate, endDate, groups)&lt;br&gt;&lt;/div&gt;&lt;div&gt;&lt;br&gt;&lt;/div&gt;&lt;div&gt;/chooseByPat&lt;/div&gt;&lt;div&gt;&lt;br&gt;&lt;/div&gt;&lt;div&gt;/bookByPat&lt;/div&gt;&lt;div&gt;&lt;br&gt;&lt;/div&gt;&lt;div&gt;/reserveByDoc&lt;/div&gt;" style="rounded=0;whiteSpace=wrap;html=1;align=left;" parent="1" vertex="1">
          <mxGeometry x="480" y="1120" width="320" height="200" as="geometry" />
        </mxCell>
        <mxCell id="pCRdCyu_GlJLCPqCEjmV-3" value="scheduler service&lt;div&gt;&lt;br&gt;&lt;/div&gt;&lt;div&gt;- freeTheSlot&lt;/div&gt;&lt;div&gt;&lt;br&gt;&lt;/div&gt;&lt;div&gt;&lt;br&gt;&lt;/div&gt;&lt;div&gt;&lt;br&gt;&lt;/div&gt;" style="rounded=0;whiteSpace=wrap;html=1;align=left;" parent="1" vertex="1">
          <mxGeometry x="880" y="1120" width="320" height="200" as="geometry" />
        </mxCell>
        <mxCell id="eEEthNtGNiNtdjUINh8C-1" value="Home&lt;div&gt;&lt;br&gt;&lt;/div&gt;&lt;div&gt;List of docs&lt;/div&gt;&lt;div&gt;Create pat account&lt;/div&gt;&lt;div&gt;Create doc account&lt;/div&gt;" style="rounded=0;whiteSpace=wrap;html=1;" vertex="1" parent="1">
          <mxGeometry x="120" y="1520" width="160" height="160" as="geometry" />
        </mxCell>
        <mxCell id="eEEthNtGNiNtdjUINh8C-2" value="doc-list&lt;div&gt;&lt;br&gt;&lt;/div&gt;&lt;div&gt;List of docs&lt;br&gt;&lt;div&gt;&lt;br&gt;&lt;/div&gt;&lt;div&gt;doc1 - groupA&lt;/div&gt;&lt;div&gt;doc2 - groupB&lt;br&gt;&lt;/div&gt;&lt;/div&gt;" style="rounded=0;whiteSpace=wrap;html=1;" vertex="1" parent="1">
          <mxGeometry x="360" y="1440" width="160" height="160" as="geometry" />
        </mxCell>
        <mxCell id="eEEthNtGNiNtdjUINh8C-3" value="Login" style="text;html=1;align=center;verticalAlign=middle;whiteSpace=wrap;rounded=0;" vertex="1" parent="1">
          <mxGeometry x="940" y="1440" width="60" height="30" as="geometry" />
        </mxCell>
        <mxCell id="eEEthNtGNiNtdjUINh8C-4" value="Login" style="text;html=1;align=center;verticalAlign=middle;whiteSpace=wrap;rounded=0;" vertex="1" parent="1">
          <mxGeometry x="220" y="1520" width="60" height="30" as="geometry" />
        </mxCell>
        <mxCell id="eEEthNtGNiNtdjUINh8C-5" value="&lt;div&gt;Login&lt;/div&gt;&lt;div&gt;&lt;br&gt;&lt;/div&gt;&lt;div&gt;username&lt;/div&gt;&lt;div&gt;password&lt;/div&gt;" style="rounded=0;whiteSpace=wrap;html=1;" vertex="1" parent="1">
          <mxGeometry x="600" y="1440" width="160" height="160" as="geometry" />
        </mxCell>
        <mxCell id="eEEthNtGNiNtdjUINh8C-6" value="&lt;div&gt;&lt;br&gt;&lt;/div&gt;&lt;div&gt;&lt;br&gt;&lt;/div&gt;&lt;div&gt;Profile&lt;/div&gt;&lt;div&gt;&lt;br&gt;&lt;/div&gt;&lt;div&gt;Pat A&lt;/div&gt;&lt;div&gt;&lt;br&gt;&lt;/div&gt;&lt;div&gt;name:&lt;/div&gt;&lt;div&gt;Address:&lt;/div&gt;&lt;div&gt;Phone number:&lt;/div&gt;&lt;div&gt;concern:&lt;/div&gt;&lt;div&gt;&lt;br&gt;&lt;/div&gt;" style="rounded=0;whiteSpace=wrap;html=1;" vertex="1" parent="1">
          <mxGeometry x="840" y="1440" width="160" height="160" as="geometry" />
        </mxCell>
        <mxCell id="eEEthNtGNiNtdjUINh8C-7" value="Logout" style="text;html=1;align=center;verticalAlign=middle;whiteSpace=wrap;rounded=0;" vertex="1" parent="1">
          <mxGeometry x="940" y="1440" width="60" height="30" as="geometry" />
        </mxCell>
        <mxCell id="eEEthNtGNiNtdjUINh8C-8" value="Login" style="text;html=1;align=center;verticalAlign=middle;whiteSpace=wrap;rounded=0;" vertex="1" parent="1">
          <mxGeometry x="460" y="1440" width="60" height="30" as="geometry" />
        </mxCell>
        <mxCell id="eEEthNtGNiNtdjUINh8C-9" value="&lt;div&gt;&lt;br&gt;&lt;/div&gt;&lt;div&gt;&lt;br&gt;&lt;/div&gt;&lt;div&gt;Profile&lt;/div&gt;&lt;div&gt;&lt;br&gt;&lt;/div&gt;&lt;div&gt;Doc A&lt;/div&gt;&lt;div&gt;&lt;br&gt;&lt;/div&gt;&lt;div&gt;name:&lt;/div&gt;&lt;div&gt;Address:&lt;/div&gt;&lt;div&gt;Phone number:&lt;/div&gt;&lt;div&gt;group&lt;/div&gt;&lt;div&gt;&lt;br&gt;&lt;/div&gt;" style="rounded=0;whiteSpace=wrap;html=1;" vertex="1" parent="1">
          <mxGeometry x="840" y="1680" width="160" height="160" as="geometry" />
        </mxCell>
        <mxCell id="eEEthNtGNiNtdjUINh8C-10" value="Logout" style="text;html=1;align=center;verticalAlign=middle;whiteSpace=wrap;rounded=0;" vertex="1" parent="1">
          <mxGeometry x="940" y="1680" width="60" height="30" as="geometry" />
        </mxCell>
        <mxCell id="eEEthNtGNiNtdjUINh8C-11" value="doc-detail&lt;div&gt;&lt;br&gt;&lt;/div&gt;&lt;div&gt;doc1&lt;br&gt;&lt;div&gt;&lt;br&gt;&lt;/div&gt;&lt;div&gt;name:&lt;/div&gt;&lt;div&gt;group:&lt;/div&gt;&lt;div&gt;availability: 2024-12-09,&amp;nbsp;&lt;span style=&quot;background-color: initial;&quot;&gt;2024-&lt;/span&gt;&lt;span style=&quot;background-color: initial;&quot;&gt;12-11,&amp;nbsp;&lt;/span&gt;&lt;span style=&quot;background-color: initial;&quot;&gt;2024-&lt;/span&gt;&lt;span style=&quot;background-color: initial;&quot;&gt;12-13&lt;/span&gt;&lt;/div&gt;&lt;/div&gt;" style="rounded=0;whiteSpace=wrap;html=1;align=left;" vertex="1" parent="1">
          <mxGeometry x="360" y="1640" width="280" height="200" as="geometry" />
        </mxCell>
        <mxCell id="eEEthNtGNiNtdjUINh8C-12" value="" style="rounded=0;whiteSpace=wrap;html=1;" vertex="1" parent="1">
          <mxGeometry x="360" y="1881" width="320" height="319" as="geometry" />
        </mxCell>
        <mxCell id="eEEthNtGNiNtdjUINh8C-13" value="2024-12-09T16:00:00&lt;div&gt;2024-12-09T16:30:00&lt;/div&gt;&lt;div&gt;2024-12-09T17:00:00&lt;/div&gt;&lt;div&gt;2024-12-09T17:30:00&lt;br&gt;&lt;div&gt;&lt;br&gt;&lt;/div&gt;&lt;/div&gt;" style="text;html=1;align=center;verticalAlign=middle;whiteSpace=wrap;rounded=0;" vertex="1" parent="1">
          <mxGeometry x="380" y="2050" width="120" height="60" as="geometry" />
        </mxCell>
        <mxCell id="eEEthNtGNiNtdjUINh8C-14" value="Booking" style="text;html=1;align=center;verticalAlign=middle;whiteSpace=wrap;rounded=0;" vertex="1" parent="1">
          <mxGeometry x="380" y="1900" width="60" height="30" as="geometry" />
        </mxCell>
        <mxCell id="eEEthNtGNiNtdjUINh8C-15" value="Confirm and payAtVisit" style="text;html=1;align=left;verticalAlign=middle;whiteSpace=wrap;rounded=0;labelBorderColor=default;" vertex="1" parent="1">
          <mxGeometry x="380" y="2125" width="140" height="30" as="geometry" />
        </mxCell>
        <mxCell id="eEEthNtGNiNtdjUINh8C-16" value="Confirm and pay" style="text;html=1;align=left;verticalAlign=middle;whiteSpace=wrap;rounded=0;labelBorderColor=default;" vertex="1" parent="1">
          <mxGeometry x="380" y="2155" width="120" height="30" as="geometry" />
        </mxCell>
        <mxCell id="eEEthNtGNiNtdjUINh8C-17" value="docName" style="text;html=1;align=center;verticalAlign=middle;whiteSpace=wrap;rounded=0;" vertex="1" parent="1">
          <mxGeometry x="380" y="1925" width="60" height="30" as="geometry" />
        </mxCell>
        <mxCell id="eEEthNtGNiNtdjUINh8C-18" value="Book or LoginToBook" style="text;html=1;align=center;verticalAlign=middle;whiteSpace=wrap;rounded=0;labelBorderColor=default;" vertex="1" parent="1">
          <mxGeometry x="500" y="1808" width="137" height="30" as="geometry" />
        </mxCell>
        <mxCell id="eEEthNtGNiNtdjUINh8C-20" value="Logout" style="text;html=1;align=center;verticalAlign=middle;whiteSpace=wrap;rounded=0;" vertex="1" parent="1">
          <mxGeometry x="577" y="1881" width="60" height="30" as="geometry" />
        </mxCell>
        <mxCell id="eEEthNtGNiNtdjUINh8C-21" value="Login" style="text;html=1;align=center;verticalAlign=middle;whiteSpace=wrap;rounded=0;" vertex="1" parent="1">
          <mxGeometry x="577" y="1640" width="60" height="30" as="geometry" />
        </mxCell>
        <mxCell id="eEEthNtGNiNtdjUINh8C-22" value="&lt;font color=&quot;#00cc00&quot;&gt;2024-12-09&lt;/font&gt;&lt;div&gt;2024-12-11&lt;br&gt;&lt;/div&gt;&lt;div&gt;2024-12-13&lt;br&gt;&lt;/div&gt;" style="text;html=1;align=left;verticalAlign=middle;whiteSpace=wrap;rounded=0;" vertex="1" parent="1">
          <mxGeometry x="380" y="1970" width="120" height="60" as="geometry" />
        </mxCell>
      </root>
    </mxGraphModel>
  </diagram>
  <diagram id="samVFxSJ5igM9H4tk1av" name="timeBlock">
    <mxGraphModel dx="662" dy="1564" grid="1" gridSize="10" guides="1" tooltips="1" connect="1" arrows="1" fold="1" page="1" pageScale="1" pageWidth="850" pageHeight="1100" math="0" shadow="0">
      <root>
        <mxCell id="0" />
        <mxCell id="1" parent="0" />
        <mxCell id="-88MNsXVjtX9nf2HYrdu-1" value="&lt;p&gt;Here is the full list of 15-minute intervals from 0 to 95:&lt;/p&gt;&lt;br&gt;&lt;table&gt;&lt;thead&gt;&lt;tr&gt;&lt;th&gt;timeBlockId&lt;/th&gt;&lt;th&gt;Time&lt;/th&gt;&lt;/tr&gt;&lt;/thead&gt;&lt;tbody&gt;&lt;tr&gt;&lt;td&gt;0&lt;/td&gt;&lt;td&gt;00:00&lt;/td&gt;&lt;/tr&gt;&lt;tr&gt;&lt;td&gt;1&lt;/td&gt;&lt;td&gt;00:15&lt;/td&gt;&lt;/tr&gt;&lt;tr&gt;&lt;td&gt;2&lt;/td&gt;&lt;td&gt;00:30&lt;/td&gt;&lt;/tr&gt;&lt;tr&gt;&lt;td&gt;3&lt;/td&gt;&lt;td&gt;00:45&lt;/td&gt;&lt;/tr&gt;&lt;tr&gt;&lt;td&gt;4&lt;/td&gt;&lt;td&gt;01:00&lt;/td&gt;&lt;/tr&gt;&lt;tr&gt;&lt;td&gt;5&lt;/td&gt;&lt;td&gt;01:15&lt;/td&gt;&lt;/tr&gt;&lt;tr&gt;&lt;td&gt;6&lt;/td&gt;&lt;td&gt;01:30&lt;/td&gt;&lt;/tr&gt;&lt;tr&gt;&lt;td&gt;7&lt;/td&gt;&lt;td&gt;01:45&lt;/td&gt;&lt;/tr&gt;&lt;tr&gt;&lt;td&gt;8&lt;/td&gt;&lt;td&gt;02:00&lt;/td&gt;&lt;/tr&gt;&lt;tr&gt;&lt;td&gt;9&lt;/td&gt;&lt;td&gt;02:15&lt;/td&gt;&lt;/tr&gt;&lt;tr&gt;&lt;td&gt;10&lt;/td&gt;&lt;td&gt;02:30&lt;/td&gt;&lt;/tr&gt;&lt;tr&gt;&lt;td&gt;11&lt;/td&gt;&lt;td&gt;02:45&lt;/td&gt;&lt;/tr&gt;&lt;tr&gt;&lt;td&gt;12&lt;/td&gt;&lt;td&gt;03:00&lt;/td&gt;&lt;/tr&gt;&lt;tr&gt;&lt;td&gt;13&lt;/td&gt;&lt;td&gt;03:15&lt;/td&gt;&lt;/tr&gt;&lt;tr&gt;&lt;td&gt;14&lt;/td&gt;&lt;td&gt;03:30&lt;/td&gt;&lt;/tr&gt;&lt;tr&gt;&lt;td&gt;15&lt;/td&gt;&lt;td&gt;03:45&lt;/td&gt;&lt;/tr&gt;&lt;tr&gt;&lt;td&gt;16&lt;/td&gt;&lt;td&gt;04:00&lt;/td&gt;&lt;/tr&gt;&lt;tr&gt;&lt;td&gt;17&lt;/td&gt;&lt;td&gt;04:15&lt;/td&gt;&lt;/tr&gt;&lt;tr&gt;&lt;td&gt;18&lt;/td&gt;&lt;td&gt;04:30&lt;/td&gt;&lt;/tr&gt;&lt;tr&gt;&lt;td&gt;19&lt;/td&gt;&lt;td&gt;04:45&lt;/td&gt;&lt;/tr&gt;&lt;tr&gt;&lt;td&gt;20&lt;/td&gt;&lt;td&gt;05:00&lt;/td&gt;&lt;/tr&gt;&lt;tr&gt;&lt;td&gt;21&lt;/td&gt;&lt;td&gt;05:15&lt;/td&gt;&lt;/tr&gt;&lt;tr&gt;&lt;td&gt;22&lt;/td&gt;&lt;td&gt;05:30&lt;/td&gt;&lt;/tr&gt;&lt;tr&gt;&lt;td&gt;23&lt;/td&gt;&lt;td&gt;05:45&lt;/td&gt;&lt;/tr&gt;&lt;tr&gt;&lt;td&gt;24&lt;/td&gt;&lt;td&gt;06:00&lt;/td&gt;&lt;/tr&gt;&lt;tr&gt;&lt;td&gt;25&lt;/td&gt;&lt;td&gt;06:15&lt;/td&gt;&lt;/tr&gt;&lt;tr&gt;&lt;td&gt;26&lt;/td&gt;&lt;td&gt;06:30&lt;/td&gt;&lt;/tr&gt;&lt;tr&gt;&lt;td&gt;27&lt;/td&gt;&lt;td&gt;06:45&lt;/td&gt;&lt;/tr&gt;&lt;tr&gt;&lt;td&gt;28&lt;/td&gt;&lt;td&gt;07:00&lt;/td&gt;&lt;/tr&gt;&lt;tr&gt;&lt;td&gt;29&lt;/td&gt;&lt;td&gt;07:15&lt;/td&gt;&lt;/tr&gt;&lt;tr&gt;&lt;td&gt;30&lt;/td&gt;&lt;td&gt;07:30&lt;/td&gt;&lt;/tr&gt;&lt;tr&gt;&lt;td&gt;31&lt;/td&gt;&lt;td&gt;07:45&lt;/td&gt;&lt;/tr&gt;&lt;tr&gt;&lt;td&gt;32&lt;/td&gt;&lt;td&gt;08:00&lt;/td&gt;&lt;/tr&gt;&lt;tr&gt;&lt;td&gt;33&lt;/td&gt;&lt;td&gt;08:15&lt;/td&gt;&lt;/tr&gt;&lt;tr&gt;&lt;td&gt;34&lt;/td&gt;&lt;td&gt;08:30&lt;/td&gt;&lt;/tr&gt;&lt;tr&gt;&lt;td&gt;35&lt;/td&gt;&lt;td&gt;08:45&lt;/td&gt;&lt;/tr&gt;&lt;tr&gt;&lt;td&gt;36&lt;/td&gt;&lt;td&gt;09:00&lt;/td&gt;&lt;/tr&gt;&lt;tr&gt;&lt;td&gt;37&lt;/td&gt;&lt;td&gt;09:15&lt;/td&gt;&lt;/tr&gt;&lt;tr&gt;&lt;td&gt;38&lt;/td&gt;&lt;td&gt;09:30&lt;/td&gt;&lt;/tr&gt;&lt;tr&gt;&lt;td&gt;39&lt;/td&gt;&lt;td&gt;09:45&lt;/td&gt;&lt;/tr&gt;&lt;tr&gt;&lt;td&gt;40&lt;/td&gt;&lt;td&gt;10:00&lt;/td&gt;&lt;/tr&gt;&lt;tr&gt;&lt;td&gt;41&lt;/td&gt;&lt;td&gt;10:15&lt;/td&gt;&lt;/tr&gt;&lt;tr&gt;&lt;td&gt;42&lt;/td&gt;&lt;td&gt;10:30&lt;/td&gt;&lt;/tr&gt;&lt;tr&gt;&lt;td&gt;43&lt;/td&gt;&lt;td&gt;10:45&lt;/td&gt;&lt;/tr&gt;&lt;tr&gt;&lt;td&gt;44&lt;/td&gt;&lt;td&gt;11:00&lt;/td&gt;&lt;/tr&gt;&lt;tr&gt;&lt;td&gt;45&lt;/td&gt;&lt;td&gt;11:15&lt;/td&gt;&lt;/tr&gt;&lt;tr&gt;&lt;td&gt;46&lt;/td&gt;&lt;td&gt;11:30&lt;/td&gt;&lt;/tr&gt;&lt;tr&gt;&lt;td&gt;47&lt;/td&gt;&lt;td&gt;11:45&lt;/td&gt;&lt;/tr&gt;&lt;tr&gt;&lt;td&gt;48&lt;/td&gt;&lt;td&gt;12:00&lt;/td&gt;&lt;/tr&gt;&lt;tr&gt;&lt;td&gt;49&lt;/td&gt;&lt;td&gt;12:15&lt;/td&gt;&lt;/tr&gt;&lt;tr&gt;&lt;td&gt;50&lt;/td&gt;&lt;td&gt;12:30&lt;/td&gt;&lt;/tr&gt;&lt;tr&gt;&lt;td&gt;51&lt;/td&gt;&lt;td&gt;12:45&lt;/td&gt;&lt;/tr&gt;&lt;tr&gt;&lt;td&gt;52&lt;/td&gt;&lt;td&gt;13:00&lt;/td&gt;&lt;/tr&gt;&lt;tr&gt;&lt;td&gt;53&lt;/td&gt;&lt;td&gt;13:15&lt;/td&gt;&lt;/tr&gt;&lt;tr&gt;&lt;td&gt;54&lt;/td&gt;&lt;td&gt;13:30&lt;/td&gt;&lt;/tr&gt;&lt;tr&gt;&lt;td&gt;55&lt;/td&gt;&lt;td&gt;13:45&lt;/td&gt;&lt;/tr&gt;&lt;tr&gt;&lt;td&gt;56&lt;/td&gt;&lt;td&gt;14:00&lt;/td&gt;&lt;/tr&gt;&lt;tr&gt;&lt;td&gt;57&lt;/td&gt;&lt;td&gt;14:15&lt;/td&gt;&lt;/tr&gt;&lt;tr&gt;&lt;td&gt;58&lt;/td&gt;&lt;td&gt;14:30&lt;/td&gt;&lt;/tr&gt;&lt;tr&gt;&lt;td&gt;59&lt;/td&gt;&lt;td&gt;14:45&lt;/td&gt;&lt;/tr&gt;&lt;tr&gt;&lt;td&gt;60&lt;/td&gt;&lt;td&gt;15:00&lt;/td&gt;&lt;/tr&gt;&lt;tr&gt;&lt;td&gt;61&lt;/td&gt;&lt;td&gt;15:15&lt;/td&gt;&lt;/tr&gt;&lt;tr&gt;&lt;td&gt;62&lt;/td&gt;&lt;td&gt;15:30&lt;/td&gt;&lt;/tr&gt;&lt;tr&gt;&lt;td&gt;63&lt;/td&gt;&lt;td&gt;15:45&lt;/td&gt;&lt;/tr&gt;&lt;tr&gt;&lt;td&gt;64&lt;/td&gt;&lt;td&gt;16:00&lt;/td&gt;&lt;/tr&gt;&lt;tr&gt;&lt;td&gt;65&lt;/td&gt;&lt;td&gt;16:15&lt;/td&gt;&lt;/tr&gt;&lt;tr&gt;&lt;td&gt;66&lt;/td&gt;&lt;td&gt;16:30&lt;/td&gt;&lt;/tr&gt;&lt;tr&gt;&lt;td&gt;67&lt;/td&gt;&lt;td&gt;16:45&lt;/td&gt;&lt;/tr&gt;&lt;tr&gt;&lt;td&gt;68&lt;/td&gt;&lt;td&gt;17:00&lt;/td&gt;&lt;/tr&gt;&lt;tr&gt;&lt;td&gt;69&lt;/td&gt;&lt;td&gt;17:15&lt;/td&gt;&lt;/tr&gt;&lt;tr&gt;&lt;td&gt;70&lt;/td&gt;&lt;td&gt;17:30&lt;/td&gt;&lt;/tr&gt;&lt;tr&gt;&lt;td&gt;71&lt;/td&gt;&lt;td&gt;17:45&lt;/td&gt;&lt;/tr&gt;&lt;tr&gt;&lt;td&gt;72&lt;/td&gt;&lt;td&gt;18:00&lt;/td&gt;&lt;/tr&gt;&lt;tr&gt;&lt;td&gt;73&lt;/td&gt;&lt;td&gt;18:15&lt;/td&gt;&lt;/tr&gt;&lt;tr&gt;&lt;td&gt;74&lt;/td&gt;&lt;td&gt;18:30&lt;/td&gt;&lt;/tr&gt;&lt;tr&gt;&lt;td&gt;75&lt;/td&gt;&lt;td&gt;18:45&lt;/td&gt;&lt;/tr&gt;&lt;tr&gt;&lt;td&gt;76&lt;/td&gt;&lt;td&gt;19:00&lt;/td&gt;&lt;/tr&gt;&lt;tr&gt;&lt;td&gt;77&lt;/td&gt;&lt;td&gt;19:15&lt;/td&gt;&lt;/tr&gt;&lt;tr&gt;&lt;td&gt;78&lt;/td&gt;&lt;td&gt;19:30&lt;/td&gt;&lt;/tr&gt;&lt;tr&gt;&lt;td&gt;79&lt;/td&gt;&lt;td&gt;19:45&lt;/td&gt;&lt;/tr&gt;&lt;tr&gt;&lt;td&gt;80&lt;/td&gt;&lt;td&gt;20:00&lt;/td&gt;&lt;/tr&gt;&lt;tr&gt;&lt;td&gt;81&lt;/td&gt;&lt;td&gt;20:15&lt;/td&gt;&lt;/tr&gt;&lt;tr&gt;&lt;td&gt;82&lt;/td&gt;&lt;td&gt;20:30&lt;/td&gt;&lt;/tr&gt;&lt;tr&gt;&lt;td&gt;83&lt;/td&gt;&lt;td&gt;20:45&lt;/td&gt;&lt;/tr&gt;&lt;tr&gt;&lt;td&gt;84&lt;/td&gt;&lt;td&gt;21:00&lt;/td&gt;&lt;/tr&gt;&lt;tr&gt;&lt;td&gt;85&lt;/td&gt;&lt;td&gt;21:15&lt;/td&gt;&lt;/tr&gt;&lt;tr&gt;&lt;td&gt;86&lt;/td&gt;&lt;td&gt;21:30&lt;/td&gt;&lt;/tr&gt;&lt;tr&gt;&lt;td&gt;87&lt;/td&gt;&lt;td&gt;21:45&lt;/td&gt;&lt;/tr&gt;&lt;tr&gt;&lt;td&gt;88&lt;/td&gt;&lt;td&gt;22:00&lt;/td&gt;&lt;/tr&gt;&lt;tr&gt;&lt;td&gt;89&lt;/td&gt;&lt;td&gt;22:15&lt;/td&gt;&lt;/tr&gt;&lt;tr&gt;&lt;td&gt;90&lt;/td&gt;&lt;td&gt;22:30&lt;/td&gt;&lt;/tr&gt;&lt;tr&gt;&lt;td&gt;91&lt;/td&gt;&lt;td&gt;22:45&lt;/td&gt;&lt;/tr&gt;&lt;tr&gt;&lt;td&gt;92&lt;/td&gt;&lt;td&gt;23:00&lt;/td&gt;&lt;/tr&gt;&lt;tr&gt;&lt;td&gt;93&lt;/td&gt;&lt;td&gt;23:15&lt;/td&gt;&lt;/tr&gt;&lt;tr&gt;&lt;td&gt;94&lt;/td&gt;&lt;td&gt;23:30&lt;/td&gt;&lt;/tr&gt;&lt;tr&gt;&lt;td&gt;95&lt;/td&gt;&lt;td&gt;23:45&lt;/td&gt;&lt;/tr&gt;&lt;/tbody&gt;&lt;/table&gt;" style="text;html=1;align=center;verticalAlign=middle;whiteSpace=wrap;rounded=0;labelBorderColor=default;labelBackgroundColor=#55FF33;" vertex="1" parent="1">
          <mxGeometry x="30" y="-410" width="410" height="1950" as="geometry" />
        </mxCell>
      </root>
    </mxGraphModel>
  </diagram>
  <diagram id="S46zw0zkKs9CsT9eSH2T" name="OtherInfo">
    <mxGraphModel dx="1034" dy="557" grid="1" gridSize="10" guides="1" tooltips="1" connect="1" arrows="1" fold="1" page="1" pageScale="1" pageWidth="850" pageHeight="1100" math="0" shadow="0">
      <root>
        <mxCell id="0" />
        <mxCell id="1" parent="0" />
        <mxCell id="UGf7PTtIyF8OQoeryz_P-1" value="Twilio to send sms or whatsApp message" style="text;html=1;align=center;verticalAlign=middle;whiteSpace=wrap;rounded=0;" vertex="1" parent="1">
          <mxGeometry x="40" y="280" width="400" height="120" as="geometry" />
        </mxCell>
      </root>
    </mxGraphModel>
  </diagram>
</mxfile>
